<svg width="84" height="37" viewBox="0 0 84 37" fill="none" xmlns="http://www.w3.org/2000/svg">
<path opacity="0.6" d="M71.9872 12.0598C78.3986 15.76 81.2396 22.8428 78.3327 27.8798C75.4258 32.9167 67.8717 34.0004 61.4603 30.3003C55.0488 26.6001 52.2078 19.5173 55.1148 14.4803C58.0217 9.44335 65.5757 8.35965 71.9872 12.0598Z" fill="#8F00FF"/>
<ellipse opacity="0.6" cx="47.6464" cy="20.7871" rx="4.11759" ry="8.23517" fill="#0066FF"/>
<ellipse opacity="0.6" cx="30.7621" cy="15.5549" rx="13.4864" ry="9.55663" transform="rotate(-34.9081 30.7621 15.5549)" fill="#05FF00"/>
<ellipse opacity="0.6" cx="41.7873" cy="32.7527" rx="1.47586" ry="1.09323" transform="rotate(12.0625 41.7873 32.7527)" fill="#FF7A00"/>
<ellipse cx="29.5276" cy="32.5516" rx="9.41163" ry="2.35291" fill="#FFE500"/>
<ellipse opacity="0.6" cx="52.6942" cy="33.5161" rx="2.94113" ry="1.17645" transform="rotate(-20.7185 52.6942 33.5161)" fill="#FF7A00"/>
<ellipse opacity="0.6" cx="46.7039" cy="32.8895" rx="2.94113" ry="1.17645" transform="rotate(-6.75792 46.7039 32.8895)" fill="#FF7A00"/>
<ellipse opacity="0.6" cx="11.0246" cy="24.67" rx="4.70581" ry="10.9186" transform="rotate(-44.6945 11.0246 24.67)" fill="#FF0000"/>
</svg>
