<svg width="78" height="78" viewBox="0 0 78 78" fill="none" xmlns="http://www.w3.org/2000/svg">
<circle cx="39" cy="39" r="39" fill="#A6ADBA"/>
<path opacity="0.6" d="M66.1202 31.5744C71.742 34.8188 74.233 41.0292 71.6842 45.4457C69.1353 49.8623 62.5117 50.8125 56.89 47.5681C51.2683 44.3237 48.7772 38.1133 51.3261 33.6967C53.8749 29.2802 60.4985 28.33 66.1202 31.5744Z" fill="#8F00FF"/>
<ellipse opacity="0.6" cx="44.7776" cy="39.2267" rx="3.61041" ry="7.22082" fill="#0066FF"/>
<ellipse opacity="0.6" cx="29.973" cy="34.6389" rx="11.8252" ry="8.37951" transform="rotate(-34.9081 29.973 34.6389)" fill="#05FF00"/>
<ellipse opacity="0.6" cx="39.6401" cy="49.7184" rx="1.29407" ry="0.958571" transform="rotate(12.0625 39.6401 49.7184)" fill="#FF7A00"/>
<ellipse cx="28.8905" cy="49.5421" rx="8.25236" ry="2.06309" fill="#FFE500"/>
<ellipse opacity="0.6" cx="49.2038" cy="50.3878" rx="2.57886" ry="1.03155" transform="rotate(-20.7185 49.2038 50.3878)" fill="#FF7A00"/>
<ellipse opacity="0.6" cx="43.9511" cy="49.8384" rx="2.57886" ry="1.03155" transform="rotate(-6.75792 43.9511 49.8384)" fill="#FF7A00"/>
<ellipse opacity="0.6" cx="12.6666" cy="42.6313" rx="4.12618" ry="9.57374" transform="rotate(-44.6945 12.6666 42.6313)" fill="#FF0000"/>
</svg>
