<svg width="176" height="33" viewBox="0 0 176 33" fill="none" xmlns="http://www.w3.org/2000/svg">
<path opacity="0.6" d="M63.1202 10.5744C68.742 13.8188 71.233 20.0292 68.6842 24.4457C66.1353 28.8623 59.5117 29.8125 53.89 26.5681C48.2683 23.3237 45.7772 17.1133 48.3261 12.6967C50.8749 8.28019 57.4985 7.32998 63.1202 10.5744Z" fill="#8F00FF"/>
<ellipse opacity="0.6" cx="41.7776" cy="18.2267" rx="3.61041" ry="7.22082" fill="#0066FF"/>
<ellipse opacity="0.6" cx="26.973" cy="13.6389" rx="11.8252" ry="8.37951" transform="rotate(-34.9081 26.973 13.6389)" fill="#05FF00"/>
<ellipse opacity="0.6" cx="36.6401" cy="28.7184" rx="1.29407" ry="0.958571" transform="rotate(12.0625 36.6401 28.7184)" fill="#FF7A00"/>
<ellipse cx="25.8905" cy="28.5421" rx="8.25236" ry="2.06309" fill="#FFE500"/>
<ellipse opacity="0.6" cx="46.2038" cy="29.3878" rx="2.57886" ry="1.03155" transform="rotate(-20.7185 46.2038 29.3878)" fill="#FF7A00"/>
<ellipse opacity="0.6" cx="40.9511" cy="28.8384" rx="2.57886" ry="1.03155" transform="rotate(-6.75792 40.9511 28.8384)" fill="#FF7A00"/>
<ellipse opacity="0.6" cx="9.66663" cy="21.6313" rx="4.12618" ry="9.57374" transform="rotate(-44.6945 9.66663 21.6313)" fill="#FF0000"/>
<path d="M88.7839 13.547L89.6579 19.343L92.7859 7.36001H95.2699L98.3749 19.251L99.3409 13.547L100.537 7.36001H103.343L99.8239 23H96.9949L93.9819 11.362L90.9459 23H88.1169L84.5979 7.36001H87.5879L88.7839 13.547Z" fill="black"/>
<path d="M111.466 13.57C111.083 13.57 110.646 13.662 110.155 13.846C109.665 14.03 109.082 14.3903 108.407 14.927V23H105.762V5.98001H108.407V12.788C109.113 12.19 109.772 11.7607 110.385 11.5C110.999 11.2393 111.627 11.109 112.271 11.109C113.391 11.109 114.242 11.4693 114.824 12.19C115.407 12.8953 115.698 13.892 115.698 15.18V23H113.053V15.502C113.053 14.214 112.524 13.57 111.466 13.57Z" fill="black"/>
<path d="M128.026 23.115C127.244 23.115 126.615 22.954 126.14 22.632C125.68 22.31 125.343 21.9113 125.128 21.436C124.469 22.0493 123.832 22.5017 123.219 22.793C122.606 23.0843 121.946 23.23 121.241 23.23C120.214 23.23 119.455 22.9003 118.964 22.241C118.489 21.5817 118.251 20.746 118.251 19.734C118.251 19.0593 118.374 18.469 118.619 17.963C118.88 17.4417 119.301 17.0353 119.884 16.744C120.467 16.4527 121.264 16.307 122.276 16.307C122.675 16.307 123.089 16.3377 123.518 16.399C123.947 16.445 124.377 16.5063 124.806 16.583V15.226C124.806 14.582 124.63 14.145 124.277 13.915C123.924 13.6697 123.449 13.547 122.851 13.547C122.391 13.547 121.885 13.6083 121.333 13.731C120.796 13.8537 120.214 14.0453 119.585 14.306L118.826 12.052C120.375 11.4233 121.778 11.109 123.035 11.109C124.17 11.109 125.044 11.3007 125.657 11.684C126.286 12.0673 126.723 12.5733 126.968 13.202C127.213 13.8307 127.336 14.5053 127.336 15.226V19.711C127.336 19.941 127.397 20.1633 127.52 20.378C127.658 20.5773 127.919 20.677 128.302 20.677H128.555V23.115H128.026ZM120.804 19.688C120.804 20.102 120.896 20.4317 121.08 20.677C121.264 20.907 121.532 21.022 121.885 21.022C122.238 21.022 122.636 20.93 123.081 20.746C123.526 20.562 124.101 20.1327 124.806 19.458V18.469C124.009 18.331 123.227 18.262 122.46 18.262C121.862 18.262 121.433 18.3847 121.172 18.63C120.927 18.8753 120.804 19.228 120.804 19.688Z" fill="black"/>
<path d="M137.866 22.609C137.467 22.793 137.007 22.9387 136.486 23.046C135.965 23.1687 135.436 23.23 134.899 23.23C134.01 23.23 133.297 23.046 132.76 22.678C132.223 22.31 131.832 21.7963 131.587 21.137C131.357 20.4777 131.242 19.7263 131.242 18.883V13.639H129.356V11.339H131.242V8.30301H133.887V11.339H137.521V13.639H133.887V18.883C133.887 19.5883 134.017 20.079 134.278 20.355C134.554 20.6157 134.945 20.746 135.451 20.746C135.696 20.746 135.957 20.723 136.233 20.677C136.524 20.6157 136.846 20.516 137.199 20.378L137.866 22.609Z" fill="black"/>
<path d="M150.688 21.988C150.304 22.218 149.668 22.4863 148.779 22.793C147.905 23.0843 146.877 23.23 145.697 23.23C144.363 23.23 143.243 22.954 142.339 22.402C141.449 21.85 140.775 21.091 140.315 20.125C139.855 19.159 139.625 18.055 139.625 16.813V13.524C139.625 12.2513 139.855 11.1397 140.315 10.189C140.775 9.22301 141.457 8.47168 142.362 7.93501C143.282 7.39834 144.432 7.13001 145.812 7.13001C146.486 7.13001 147.184 7.20668 147.905 7.36001C148.625 7.49801 149.415 7.75868 150.274 8.14201L149.423 10.557C148.671 10.2657 148.02 10.0587 147.468 9.93601C146.931 9.79801 146.394 9.72901 145.858 9.72901C144.662 9.72901 143.795 10.074 143.259 10.764C142.722 11.4387 142.454 12.3587 142.454 13.524V16.813C142.454 17.917 142.722 18.8217 143.259 19.527C143.811 20.2323 144.669 20.585 145.835 20.585C146.187 20.585 146.571 20.5543 146.985 20.493C147.399 20.4317 147.797 20.3473 148.181 20.24V16.813H145.651V14.398H150.688V21.988Z" fill="black"/>
<path d="M162.706 22.333C161.909 22.655 161.157 22.885 160.452 23.023C159.747 23.161 159.08 23.23 158.451 23.23C156.718 23.23 155.407 22.7393 154.518 21.758C153.629 20.7767 153.184 19.4733 153.184 17.848V16.468C153.184 15.3793 153.383 14.4363 153.782 13.639C154.181 12.8417 154.748 12.2207 155.484 11.776C156.22 11.3313 157.086 11.109 158.083 11.109C158.896 11.109 159.655 11.2777 160.36 11.615C161.081 11.937 161.663 12.4507 162.108 13.156C162.568 13.846 162.798 14.7353 162.798 15.824C162.798 16.146 162.775 16.491 162.729 16.859C162.683 17.2117 162.606 17.5873 162.499 17.986H155.737C155.768 18.9367 156.005 19.6497 156.45 20.125C156.895 20.6003 157.608 20.838 158.589 20.838C159.11 20.838 159.647 20.7767 160.199 20.654C160.766 20.5313 161.349 20.3473 161.947 20.102L162.706 22.333ZM158.083 13.34C157.378 13.34 156.826 13.57 156.427 14.03C156.044 14.4747 155.821 15.1187 155.76 15.962H160.176C160.191 15.8853 160.199 15.8163 160.199 15.755C160.199 15.6783 160.199 15.6093 160.199 15.548C160.199 14.812 159.992 14.26 159.578 13.892C159.164 13.524 158.666 13.34 158.083 13.34Z" fill="black"/>
<path d="M175.39 16.468V17.848C175.39 19.4733 174.946 20.7767 174.056 21.758C173.167 22.7393 171.91 23.23 170.284 23.23C168.659 23.23 167.402 22.7393 166.512 21.758C165.623 20.7767 165.178 19.4733 165.178 17.848V16.468C165.178 14.8427 165.615 13.547 166.489 12.581C167.379 11.5997 168.644 11.109 170.284 11.109C171.925 11.109 173.182 11.5997 174.056 12.581C174.946 13.547 175.39 14.8427 175.39 16.468ZM172.676 16.468C172.676 15.5327 172.469 14.8043 172.055 14.283C171.641 13.7463 171.051 13.478 170.284 13.478C169.518 13.478 168.927 13.7463 168.513 14.283C168.099 14.8043 167.892 15.5327 167.892 16.468V17.848C167.892 18.7833 168.099 19.5193 168.513 20.056C168.927 20.5927 169.518 20.861 170.284 20.861C171.051 20.861 171.641 20.5927 172.055 20.056C172.469 19.5193 172.676 18.7833 172.676 17.848V16.468Z" fill="black"/>
<path d="M85.07 29H84.47V25.6H85.07V29Z" fill="black"/>
<path d="M94.3581 29V25.6H94.9081C95.1714 25.9434 95.4214 26.3067 95.6581 26.69C95.8947 27.07 96.1097 27.4617 96.3031 27.865L96.2581 26.85V25.6H96.8331V29H96.2831C96.0697 28.58 95.8481 28.1584 95.6181 27.735C95.3914 27.3084 95.1497 26.9067 94.8931 26.53L94.9331 27.7V29H94.3581Z" fill="black"/>
<path d="M106.121 29V25.6H107.271C107.678 25.6 107.988 25.7134 108.201 25.94C108.414 26.1667 108.521 26.5 108.521 26.94V27.655C108.521 28.0984 108.414 28.4334 108.201 28.66C107.988 28.8867 107.678 29 107.271 29H106.121ZM107.246 26.175H106.721V28.425H107.246C107.483 28.425 107.651 28.3667 107.751 28.25C107.854 28.1334 107.906 27.935 107.906 27.655V26.94C107.906 26.6634 107.854 26.4667 107.751 26.35C107.651 26.2334 107.483 26.175 107.246 26.175Z" fill="black"/>
<path d="M120.07 26.94V27.655C120.07 28.0884 119.961 28.43 119.745 28.68C119.528 28.9267 119.211 29.05 118.795 29.05C118.375 29.05 118.056 28.9267 117.84 28.68C117.626 28.43 117.52 28.0884 117.52 27.655V26.94C117.52 26.5067 117.626 26.1667 117.84 25.92C118.056 25.6734 118.375 25.55 118.795 25.55C119.211 25.55 119.528 25.6734 119.745 25.92C119.961 26.1667 120.07 26.5067 120.07 26.94ZM119.455 26.94C119.455 26.6667 119.401 26.4617 119.295 26.325C119.188 26.185 119.021 26.115 118.795 26.115C118.568 26.115 118.401 26.185 118.295 26.325C118.188 26.4617 118.135 26.6667 118.135 26.94V27.655C118.135 27.9284 118.188 28.135 118.295 28.275C118.401 28.415 118.568 28.485 118.795 28.485C119.021 28.485 119.188 28.415 119.295 28.275C119.401 28.135 119.455 27.9284 119.455 27.655V26.94Z" fill="black"/>
<path d="M129.213 29V25.6H129.763C130.026 25.9434 130.276 26.3067 130.513 26.69C130.749 27.07 130.964 27.4617 131.158 27.865L131.113 26.85V25.6H131.688V29H131.138C130.924 28.58 130.703 28.1584 130.473 27.735C130.246 27.3084 130.004 26.9067 129.748 26.53L129.788 27.7V29H129.213Z" fill="black"/>
<path d="M142.946 28.425V29H140.976V25.6H142.896V26.175H141.576V26.99H142.746V27.565H141.576V28.425H142.946Z" fill="black"/>
<path d="M152.746 28.495C153.133 28.495 153.326 28.3517 153.326 28.065C153.326 27.9484 153.297 27.8567 153.237 27.79C153.18 27.7234 153.073 27.665 152.917 27.615L152.507 27.48C152.017 27.32 151.771 26.9984 151.771 26.515C151.771 26.235 151.858 26.005 152.032 25.825C152.208 25.6417 152.483 25.55 152.856 25.55C153.013 25.55 153.168 25.5684 153.322 25.605C153.475 25.6384 153.638 25.6934 153.812 25.77L153.627 26.285C153.467 26.2217 153.33 26.1767 153.216 26.15C153.106 26.12 152.993 26.105 152.877 26.105C152.723 26.105 152.601 26.1334 152.511 26.19C152.425 26.2434 152.382 26.3417 152.382 26.485C152.382 26.5917 152.411 26.68 152.471 26.75C152.535 26.8167 152.638 26.8734 152.782 26.92L153.191 27.055C153.438 27.1384 153.623 27.26 153.746 27.42C153.873 27.5767 153.937 27.785 153.937 28.045C153.937 28.345 153.841 28.5884 153.651 28.775C153.461 28.9584 153.163 29.05 152.757 29.05C152.597 29.05 152.43 29.0317 152.257 28.995C152.087 28.955 151.9 28.8884 151.697 28.795L151.882 28.28C152.068 28.36 152.226 28.4167 152.356 28.45C152.49 28.48 152.62 28.495 152.746 28.495Z" fill="black"/>
<path d="M163.544 29H162.944V25.6H163.544V29Z" fill="black"/>
<path d="M174.642 29L174.432 28.335H173.267L173.057 29H172.462L173.597 25.6H174.127L175.267 29H174.642ZM173.592 27.295L173.437 27.785H174.257L174.102 27.295L173.852 26.435L173.592 27.295Z" fill="black"/>
<path d="M84.5 24.5H175.5" stroke="black" stroke-width="0.5" stroke-linecap="square"/>
</svg>
